<svg xmlns="http://www.w3.org/2000/svg" xmlns:xlink="http://www.w3.org/1999/xlink" version="1.1" x="0px" y="0px" viewBox="0 0 100 125" enable-background="new 0 0 100 100" xml:space="preserve"><path d="M62.818,39.708c0.146,0.72,0.13,1.48-0.08,2.205c-0.183,0.68-0.553,1.321-1.051,1.852c-1.695,1.72-4.469,1.759-6.212,0.086  l-8.601-8.391l-1.369,1.544l8.612,8.396c2.349,2.281,6.605,2.514,8.923,0.173c0.796-0.82,1.484-2.545,1.719-3.619h18.646  c2.443,0,4.863,2.278,4.863,4.709c0,2.454-1.501,4.783-4.863,4.783h-31.3c-1.576-0.043-3.352-0.661-4.718-1.822L28.091,35.066  L4.323,35.004V19.157l34.859,0.058c0,0,2.306,0.05,3.896,0.973c1.469,0.857,2.77,2.107,2.77,2.107l15.74,15.286  C62.189,38.158,62.606,38.888,62.818,39.708z"/><path d="M39.578,87.76c-0.149,0.72-0.133,1.478,0.078,2.203c0.183,0.682,0.551,1.32,1.048,1.852c1.697,1.719,4.473,1.76,6.21,0.086  l8.601-8.391l1.373,1.543l-8.617,8.397c-2.346,2.277-6.608,2.514-8.92,0.171c-0.794-0.817-1.482-2.543-1.719-3.617H18.984  c-2.445,0-4.861,2.278-4.861,4.712c0,2.453,1.5,4.783,4.861,4.783h31.305c1.572-0.044,3.352-0.661,4.713-1.822l19.302-14.56  l21.564-0.09V67.272h-32.66c0,0-2.305,0.047-3.896,0.975c-1.469,0.855-2.762,2.104-2.762,2.104L40.804,85.637  C40.205,86.209,39.785,86.938,39.578,87.76z"/><path d="M97.054,17.741c2.229-2.227,2.719-5.56,1.521-8.417l-5.561,5.562l-4.46-4.459l5.586-5.585  c-2.876-1.244-6.251-0.764-8.498,1.484c-2.249,2.248-2.731,5.625-1.485,8.499l-4.491,4.491l-7.733-7.774l5.34-5.343l-5.483-5.484  L57.107,15.396l5.483,5.484l5.059-5.058l7.735,7.772l-8.828,8.829c-1.182,1.182-1.182,3.098,0,4.28c1.184,1.184,3.099,1.182,4.28,0  l8.819-8.817l8.773,8.817c1.183,1.182,3.099,1.184,4.283,0c1.182-1.182,1.182-3.098-0.003-4.28l-8.772-8.817l4.457-4.459  C91.309,20.479,94.764,20.031,97.054,17.741z"/><path d="M42.021,67.646c0.114-0.232,0.259-0.45,0.344-0.71c0.56-1.628,0.487-3.421-0.208-5.032c-0.623-1.441-1.72-2.633-3.06-3.354  c0.15-2.959-1.598-5.782-4.442-6.858c-1.326-0.499-2.767-0.547-4.092-0.165c-0.791-1.188-1.925-2.105-3.267-2.61  c-0.746-0.281-1.521-0.422-2.307-0.422c-2.579,0-4.902,1.57-5.92,3.968c-2.671,0.065-5.043,1.813-5.931,4.381  c-0.248,0.721-0.371,1.469-0.375,2.219c-2.412,0.301-4.493,1.966-5.31,4.344c-0.482,1.389-0.474,2.871-0.066,4.24H0.79  l13.979,17.435h20.121l14.108-17.435H42.021z M10.391,64.599c0.531-1.538,2.253-2.461,3.927-2.084l2.833,0.647L16.1,60.231  c-0.259-0.726-0.271-1.481-0.022-2.189c0.515-1.509,2.145-2.45,3.824-2.105l1.526,0.292l0.292-1.655  c0.032-0.169,0.069-0.334,0.124-0.491c0.586-1.701,2.628-2.626,4.42-1.941c0.997,0.372,1.776,1.154,2.129,2.136l0.653,1.787  l1.559-0.919c0.892-0.52,2.011-0.612,3.016-0.235c1.743,0.653,2.717,2.515,2.208,4.224l-0.516,1.729l1.626,0.44  c0.101,0.029,0.201,0.054,0.316,0.102c0.924,0.344,1.67,1.056,2.063,1.953c0.329,0.768,0.365,1.621,0.099,2.395  c-0.299,0.881-0.975,1.556-1.861,1.896H10.88C10.239,66.754,10.041,65.614,10.391,64.599z"/><text x="0" y="115" fill="#000000" font-size="5px" font-weight="bold" font-family="'Helvetica Neue', Helvetica, Arial-Unicode, Arial, Sans-serif">Created by Luis Prado</text><text x="0" y="120" fill="#000000" font-size="5px" font-weight="bold" font-family="'Helvetica Neue', Helvetica, Arial-Unicode, Arial, Sans-serif">from the Noun Project</text></svg>